<svg width="48" height="48" viewBox="0 0 48 48" fill="none" xmlns="http://www.w3.org/2000/svg">
<rect x="0.5" y="0.5" width="47" height="47" rx="23.5" fill="#CF50AC"/>
<rect x="0.5" y="0.5" width="47" height="47" rx="23.5" stroke="#CF50AC"/>
<path d="M24 20.4062C22 20.4062 20.4062 22.0312 20.4062 24C20.4062 26 22 27.5938 24 27.5938C25.9688 27.5938 27.5938 26 27.5938 24C27.5938 22.0312 25.9688 20.4062 24 20.4062ZM24 26.3438C22.7188 26.3438 21.6562 25.3125 21.6562 24C21.6562 22.7188 22.6875 21.6875 24 21.6875C25.2812 21.6875 26.3125 22.7188 26.3125 24C26.3125 25.3125 25.2812 26.3438 24 26.3438ZM28.5625 20.2812C28.5625 19.8125 28.1875 19.4375 27.7188 19.4375C27.25 19.4375 26.875 19.8125 26.875 20.2812C26.875 20.75 27.25 21.125 27.7188 21.125C28.1875 21.125 28.5625 20.75 28.5625 20.2812ZM30.9375 21.125C30.875 20 30.625 19 29.8125 18.1875C29 17.375 28 17.125 26.875 17.0625C25.7188 17 22.25 17 21.0938 17.0625C19.9688 17.125 19 17.375 18.1562 18.1875C17.3438 19 17.0938 20 17.0312 21.125C16.9688 22.2812 16.9688 25.75 17.0312 26.9062C17.0938 28.0312 17.3438 29 18.1562 29.8438C19 30.6562 19.9688 30.9062 21.0938 30.9688C22.25 31.0312 25.7188 31.0312 26.875 30.9688C28 30.9062 29 30.6562 29.8125 29.8438C30.625 29 30.875 28.0312 30.9375 26.9062C31 25.75 31 22.2812 30.9375 21.125ZM29.4375 28.125C29.2188 28.75 28.7188 29.2188 28.125 29.4688C27.1875 29.8438 25 29.75 24 29.75C22.9688 29.75 20.7812 29.8438 19.875 29.4688C19.25 29.2188 18.7812 28.75 18.5312 28.125C18.1562 27.2188 18.25 25.0312 18.25 24C18.25 23 18.1562 20.8125 18.5312 19.875C18.7812 19.2812 19.25 18.8125 19.875 18.5625C20.7812 18.1875 22.9688 18.2812 24 18.2812C25 18.2812 27.1875 18.1875 28.125 18.5625C28.7188 18.7812 29.1875 19.2812 29.4375 19.875C29.8125 20.8125 29.7188 23 29.7188 24C29.7188 25.0312 29.8125 27.2188 29.4375 28.125Z" fill="white"/>
</svg>
