<svg width="46" height="46" viewBox="0 0 46 46" fill="none" xmlns="http://www.w3.org/2000/svg">
<rect width="46" height="46" rx="8" fill="#121214"/>
<path d="M27.8984 26.9766C28.3555 27.3984 28.3555 28.1367 27.8984 28.5586C27.6875 28.7695 27.4062 28.875 27.125 28.875C26.8086 28.875 26.5273 28.7695 26.3164 28.5586L22.625 24.8672L18.8984 28.5586C18.6875 28.7695 18.4062 28.875 18.125 28.875C17.8086 28.875 17.5273 28.7695 17.3164 28.5586C16.8594 28.1367 16.8594 27.3984 17.3164 26.9766L21.0078 23.25L17.3164 19.5586C16.8594 19.1367 16.8594 18.3984 17.3164 17.9766C17.7383 17.5195 18.4766 17.5195 18.8984 17.9766L22.625 21.668L26.3164 17.9766C26.7383 17.5195 27.4766 17.5195 27.8984 17.9766C28.3555 18.3984 28.3555 19.1367 27.8984 19.5586L24.207 23.2852L27.8984 26.9766Z" fill="#868E96"/>
</svg>
