<svg width="72" height="72" viewBox="0 0 72 72" fill="none" xmlns="http://www.w3.org/2000/svg">
<rect width="72" height="72" rx="8" fill="url(#paint0_linear_209_8300)"/>
<path d="M47.0729 40.8606L41.9268 38.6551C41.789 38.6092 41.6511 38.5632 41.4673 38.5632C41.1457 38.5632 40.8241 38.747 40.6403 38.9768L38.343 41.7795C34.7591 40.0795 31.9104 37.2308 30.2104 33.6469L33.0131 31.3496C33.2429 31.1658 33.4267 30.8442 33.4267 30.4766C33.4267 30.3388 33.3807 30.2009 33.3348 30.0631L31.1293 24.9171C30.9455 24.5035 30.532 24.2279 30.0725 24.2279C30.0266 24.2279 29.9347 24.2738 29.8428 24.2738L25.0643 25.3765C24.5589 25.5144 24.2373 25.9279 24.2373 26.4333C24.2373 38.2416 33.7483 47.7526 45.5566 47.7526C46.062 47.7526 46.4755 47.431 46.6134 46.9256L47.7161 42.1471C47.7161 42.0552 47.7161 41.9633 47.7161 41.9174C47.7161 41.4579 47.4404 41.0444 47.0729 40.8606Z" fill="white"/>
<defs>
<linearGradient id="paint0_linear_209_8300" x1="36" y1="0" x2="36" y2="72" gradientUnits="userSpaceOnUse">
<stop stop-color="#50C571"/>
<stop offset="1" stop-color="#50CF9A"/>
</linearGradient>
</defs>
</svg>
